<?xml version="1.0" encoding="UTF-8" standalone="no" ?>
<svg
  xmlns:dc="http://purl.org/dc/elements/1.1/"
  xmlns:cc="http://creativecommons.org/ns#"
  xmlns:rdf="http://www.w3.org/1999/02/22-rdf-syntax-ns#"
  xmlns:svg="http://www.w3.org/2000/svg"
  xmlns="http://www.w3.org/2000/svg"
  xmlns:sodipodi="http://sodipodi.sourceforge.net/DTD/sodipodi-0.dtd"
  xmlns:inkscape="http://www.inkscape.org/namespaces/inkscape"
  width="24mm"
  height="24mm"
  viewBox="0 0 24 24"
  version="1.1"
  id="svg1306"
  inkscape:version="1.0.1 (3bc2e813f5, 2020-09-07)"
  sodipodi:docname="character.svg"
>
  <defs id="defs1300" />
  <sodipodi:namedview
    id="base"
    pagecolor="#ffffff"
    bordercolor="#666666"
    borderopacity="1.0"
    inkscape:pageopacity="0.0"
    inkscape:pageshadow="2"
    inkscape:zoom="7.9195959"
    inkscape:cx="43.20302"
    inkscape:cy="36.741665"
    inkscape:document-units="mm"
    inkscape:current-layer="layer1"
    inkscape:document-rotation="0"
    showgrid="false"
    inkscape:window-width="1920"
    inkscape:window-height="1017"
    inkscape:window-x="-8"
    inkscape:window-y="-8"
    inkscape:window-maximized="1"
  />
  <metadata id="metadata1303">
    <rdf:RDF>
      <cc:Work rdf:about="">
        <dc:format>image/svg+xml</dc:format>
        <dc:type rdf:resource="http://purl.org/dc/dcmitype/StillImage" />
        <dc:title />
      </cc:Work>
    </rdf:RDF>
  </metadata>
  <g inkscape:label="Layer 1" inkscape:groupmode="layer" id="layer1">
    <g id="g1348" transform="translate(2.09823,2.7431104)">
      <path
        d="m 13.009,7.760124 c -0.176036,0.1778 -0.261056,0.4109861 -0.256822,0.6431139 L 8.9696945,9.0795129 C 8.9361806,8.8286879 8.8232918,8.5866823 8.6299695,8.395124 8.5826973,8.3482045 8.5318973,8.306224 8.4789807,8.2691823 L 8.9206584,7.5209407 c 0.3298472,0.149225 0.7320139,0.088547 1.0015361,-0.1834445 0.3457225,-0.34925 0.3429005,-0.9143999 -0.00635,-1.2601222 -0.3488972,-0.3457222 -0.9140472,-0.3432527 -1.2601222,0.006 -0.3457222,0.34925 -0.3429,0.9143999 0.006,1.2601222 0.030339,0.029986 0.062442,0.056092 0.09525,0.080786 L 8.3152918,8.1721684 C 8.054589,8.045874 7.7571973,8.020474 7.4820307,8.0959684 L 6.9299335,6.585374 c 0.086783,-0.042333 0.168275,-0.099131 0.2402416,-0.1718027 0.3457222,-0.3488973 0.3429,-0.9144 -0.006,-1.2601222 -0.34925,-0.3457223 -0.9147528,-0.3429 -1.260475,0.006 -0.3457222,0.34925 -0.3429,0.9147527 0.00635,1.260475 0.2286,0.2264833 0.5496278,0.3023305 0.841375,0.2303638 L 7.3031723,8.1608795 C 7.1772307,8.2183823 7.0594029,8.2991684 6.9563918,8.4032379 6.5884446,8.7747129 6.517889,9.3306906 6.743314,9.773074 l -0.8791222,0.568325 c -0.023989,-0.0321 -0.050447,-0.06315 -0.079728,-0.09243 -0.3492499,-0.345722 -0.9143999,-0.3428998 -1.2601221,0.0064 -0.3457223,0.34925 -0.3429,0.9144 0.006,1.260122 0.34925,0.345723 0.9144,0.343253 1.2604749,-0.006 0.269875,-0.272697 0.3263195,-0.67698 0.1721556,-1.005769 l 0.879475,-0.5683253 c 0.036336,0.049742 0.076905,0.097014 0.1220611,0.1418163 0.3153833,0.312209 0.7634111,0.410281 1.1624027,0.295275 l 0.4878917,1.159581 c -0.053622,0.03457 -0.1051278,0.07514 -0.1516944,0.122414 -0.346075,0.348897 -0.3432528,0.9144 0.006,1.260122 0.3488972,0.345722 0.9144,0.3429 1.2601222,-0.006 0.3457215,-0.34925 0.3428995,-0.9144 -0.006,-1.260122 C 9.4688751,11.396557 9.1005751,11.330588 8.7855445,11.447357 L 8.3050612,10.305063 c 0.12065,-0.05715 0.2338917,-0.13582 0.3330222,-0.236008 C 8.8575112,9.8475101 8.9707529,9.560349 8.9792195,9.2710712 L 12.776167,8.5923268 c 0.03704,0.1569861 0.116064,0.3062111 0.23883,0.4279194 0.34925,0.3457222 0.9144,0.3432528 1.260475,-0.006 0.345722,-0.34925 0.3429,-0.9144 -0.0064,-1.2601222 -0.348847,-0.3457194 -0.913997,-0.34325 -1.260072,0.006 M 8.7908362,6.217074 c 0.2719917,-0.2744611 0.7168444,-0.2765777 0.9913055,-0.00459 0.2748143,0.2719917 0.2769303,0.7168445 0.00494,0.9913056 -0.2303639,0.2324805 -0.5842,0.2688166 -0.8537222,0.1097138 l -3.528e-4,-3.527e-4 c -3.527e-4,3.527e-4 -3.527e-4,0 -3.527e-4,0 C 8.8839695,7.2845796 8.8377556,7.2500073 8.7957751,7.2087323 8.5209612,6.9367407 8.5188445,6.4918879 8.7908362,6.217074 M 6.0437557,6.2848074 C 5.7689418,6.0128157 5.7668252,5.5679629 6.0388168,5.2935018 6.3108085,5.0186879 6.7556612,5.0165713 7.0301224,5.2885629 7.3049362,5.5605546 7.3070529,6.0054074 7.0350612,6.2798685 6.7630696,6.5546824 6.3182168,6.556799 6.0437557,6.2848074 M 5.6557002,11.375743 c -0.2719917,0.274461 -0.7168445,0.276578 -0.9913056,0.0046 -0.2748139,-0.271991 -0.2769305,-0.716844 -0.00494,-0.991305 0.2719917,-0.274461 0.7164917,-0.276931 0.9913056,-0.0049 0.2748139,0.271992 0.2769305,0.716844 0.00494,0.991658 m 3.9334721,0.407811 c 0.2748139,0.271992 0.2769305,0.716492 0.00494,0.990953 -0.2719917,0.274814 -0.7168444,0.276931 -0.9913055,0.0049 -0.2744612,-0.271992 -0.2769306,-0.716492 -0.00494,-0.991305 0.2719916,-0.274462 0.7168444,-0.276578 0.9913055,-0.0046 M 7.0982085,9.9420545 C 6.7090946,9.5564684 6.7059196,8.9264073 7.0915057,8.5372934 7.476739,8.1478268 8.1071529,8.1450045 8.4962668,8.5302379 8.8853806,8.915824 8.8885556,9.5458851 8.5029668,9.934999 8.1177335,10.324113 7.4873196,10.327288 7.0982058,9.942059 M 14.140358,8.8805462 c -0.271991,0.2744611 -0.716844,0.2765778 -0.991305,0.00459 -0.274814,-0.2719917 -0.276931,-0.7164916 -0.0049,-0.9913055 0.271992,-0.2744611 0.716844,-0.2765778 0.991305,-0.00459 0.274814,0.2719916 0.276931,0.7164916 0.0049,0.9913055"
        style="fill:#8E0010;fill-opacity:1;fill-rule:nonzero;"
        id="path588"
      />
      <g
        id="g590"
        transform="matrix(0,0.35277777,0.35277777,0,9.90177,17.455445)"
      >
        <path
          d="m 0,0 c 0,-5.96 -14.324,-25.068 -31.056,-25.068 -7.281,0 -15.424,5.479 -15.424,12.814 0,5.602 2.913,10.639 6.681,12.265 -3.727,1.666 -6.681,6.754 -6.681,12.243 0,7.334 8.143,12.814 15.424,12.814 C -14.324,25.068 0,5.96 0,0 m -45.363,-12.254 c 0,-5.522 6.119,-11.697 14.307,-11.697 9.454,0 17.276,6.3 21.098,10.055 5.46,5.365 8.841,11.39 8.841,13.896 0,2.505 -3.381,8.531 -8.841,13.896 -3.822,3.755 -11.644,10.054 -21.098,10.054 -8.188,0 -14.307,-6.175 -14.307,-11.696 0,-6.693 4.294,-11.695 8.133,-11.695 0.308,0 0.558,-0.25 0.558,-0.559 0,-0.309 -0.25,-0.559 -0.558,-0.559 -4.654,0 -8.133,-6.175 -8.133,-11.695"
          style="fill:#8E0010;fill-opacity:1;fill-rule:nonzero;stroke:none"
          id="path592"
        />
      </g>
    </g>
  </g>
</svg>
